<svg xmlns="http://www.w3.org/2000/svg" width="170.553" height="50.5" viewBox="0 0 170.553 50.5"><g transform="translate(0 0.001)"><g transform="translate(112.774 -0.001)"><path d="M730.633,140.439a2.494,2.494,0,0,0,2.022.924c1.04,0,1.618-.578,1.618-1.213,0-1.791-4.275-.693-4.275-3.7,0-1.213,1.04-2.253,2.773-2.253a3.422,3.422,0,0,1,2.542,1.04l-.867.866a2.2,2.2,0,0,0-1.675-.751c-.982,0-1.5.52-1.5,1.1,0,1.791,4.275.693,4.275,3.7,0,1.271-1.1,2.369-2.888,2.369a3.7,3.7,0,0,1-2.888-1.213Z" transform="translate(-729.766 -134.2)" fill="#262a32"/><path d="M762.765,155.072a1.467,1.467,0,0,0,.693.173,1.05,1.05,0,0,0,.982-.751l.231-.578-2.253-5.546h1.271l1.56,4.1,1.56-4.1h1.271l-2.426,6.181c-.462,1.167-1.1,1.791-2.022,1.791a2.105,2.105,0,0,1-.867-.173Z" transform="translate(-756.295 -145.714)" fill="#262a32"/><path d="M799.021,142.095a2.272,2.272,0,0,1-1.906.924,2.9,2.9,0,0,1,0-5.777,2.272,2.272,0,0,1,1.906.924v-3.35h1.155V142.9h-1.155Zm0-1.964a1.679,1.679,0,1,0-1.675,1.791A1.705,1.705,0,0,0,799.021,140.131Z" transform="translate(-782.374 -134.7)" fill="#262a32"/><path d="M833.021,147.871h1.155v.809a2.143,2.143,0,0,1,1.733-.924,2.191,2.191,0,0,1,2.2,2.426v3.235h-1.155v-3.235a1.229,1.229,0,0,0-1.271-1.329,1.472,1.472,0,0,0-1.5,1.56v3h-1.155Z" transform="translate(-813.659 -145.213)" fill="#262a32"/><path d="M871.175,152.492a2.971,2.971,0,0,1-2.368,1.04,2.889,2.889,0,0,1-.057-5.777,2.642,2.642,0,0,1,2.715,2.715,2.61,2.61,0,0,1-.058.578h-4.275a1.705,1.705,0,0,0,1.733,1.386,2.306,2.306,0,0,0,1.618-.751Zm-.924-2.426a1.5,1.5,0,0,0-1.5-1.271,1.619,1.619,0,0,0-1.618,1.271Z" transform="translate(-840.388 -145.213)" fill="#262a32"/><path d="M898.3,155.072a1.467,1.467,0,0,0,.693.173,1.05,1.05,0,0,0,.982-.751l.231-.578-2.253-5.546h1.271l1.56,4.1,1.56-4.1h1.271l-2.426,6.181c-.462,1.167-1.1,1.791-2.022,1.791a2.106,2.106,0,0,1-.867-.173Z" transform="translate(-866.416 -145.714)" fill="#262a32"/></g><g transform="translate(112.228 14.432)"><path d="M734.482,218.484a4.31,4.31,0,0,1-3.35,1.617,4.159,4.159,0,1,1,3.293-6.759l-.809.809a3.077,3.077,0,0,0-2.484-1.213,3,3,0,1,0,0,6.008,3.222,3.222,0,0,0,2.542-1.271Z" transform="translate(-726.857 -211.668)" fill="#262a32"/><path d="M773.371,212.4h1.155v3.35a2.143,2.143,0,0,1,1.733-.924,2.191,2.191,0,0,1,2.2,2.426v3.235H777.3v-3.235a1.229,1.229,0,0,0-1.271-1.329,1.472,1.472,0,0,0-1.5,1.56v3h-1.155Z" transform="translate(-764.649 -212.168)" fill="#262a32"/><path d="M808.872,213.015a.693.693,0,1,1-.693.693A.7.7,0,0,1,808.872,213.015Zm-.578,2.426h1.155v5.546h-1.155Z" transform="translate(-792.93 -212.668)" fill="#262a32"/><path d="M823.581,212.4h1.155v8.087h-1.155Z" transform="translate(-805.444 -212.168)" fill="#262a32"/><path d="M840.594,219.678a2.272,2.272,0,0,1-1.906.924,2.9,2.9,0,0,1,0-5.777,2.272,2.272,0,0,1,1.906.924V212.4h1.156v8.087h-1.156Zm0-1.964a1.679,1.679,0,1,0-1.675,1.791A1.7,1.7,0,0,0,840.594,217.714Z" transform="translate(-815.606 -212.168)" fill="#262a32"/><path d="M874.593,225.453h1.155v.751a2.124,2.124,0,0,1,1.675-.867h.289v1.213a2.189,2.189,0,0,0-.462-.058,1.574,1.574,0,0,0-1.5,1.675V231h-1.155Z" transform="translate(-846.891 -222.681)" fill="#262a32"/><path d="M898.947,230.075a2.972,2.972,0,0,1-2.368,1.04,2.889,2.889,0,0,1-.058-5.777,2.734,2.734,0,0,1,2.657,3.293H894.9a1.705,1.705,0,0,0,1.733,1.386,2.305,2.305,0,0,0,1.617-.751Zm-.924-2.426a1.5,1.5,0,0,0-1.5-1.271,1.619,1.619,0,0,0-1.617,1.271Z" transform="translate(-862.407 -222.681)" fill="#262a32"/><path d="M929.423,225.453h1.155v.809a2.143,2.143,0,0,1,1.733-.924,2.191,2.191,0,0,1,2.2,2.426V231h-1.156v-3.235a1.229,1.229,0,0,0-1.271-1.328,1.472,1.472,0,0,0-1.5,1.559v3h-1.155Z" transform="translate(-891.44 -222.681)" fill="#262a32"/><path d="M962.057,211.167l1.04.578-1.444,2.311-.751-.4Z" transform="translate(-917.016 -211.167)" fill="#262a32"/><path d="M970.278,229.324a2.028,2.028,0,0,0,1.444.751c.635,0,.982-.347.982-.693,0-.924-2.946-.462-2.946-2.426,0-.866.751-1.617,2.022-1.617a2.628,2.628,0,0,1,1.964.751l-.751.751a1.824,1.824,0,0,0-1.213-.462c-.578,0-.867.289-.867.578,0,.924,2.946.462,2.946,2.426a1.9,1.9,0,0,1-2.138,1.733,2.823,2.823,0,0,1-2.2-1.04Z" transform="translate(-924.024 -222.681)" fill="#262a32"/></g><g transform="translate(113.197 28.292)"><path d="M732.023,285.085h1.271v3.408h3.986v-3.408h1.271v8.087H737.28v-3.524h-3.986v3.524h-1.271Z" transform="translate(-732.023 -285.085)" fill="#262a32"/><path d="M776.558,298.024a2.888,2.888,0,1,1-2.888,2.888A2.86,2.86,0,0,1,776.558,298.024Zm1.733,2.888a1.734,1.734,0,1,0-1.733,1.791A1.716,1.716,0,0,0,778.291,300.912Z" transform="translate(-765.861 -295.598)" fill="#262a32"/><path d="M808.612,302.01a2.028,2.028,0,0,0,1.444.751c.636,0,.982-.347.982-.693,0-.924-2.946-.462-2.946-2.426,0-.866.751-1.617,2.022-1.617a2.628,2.628,0,0,1,1.964.751l-.751.751a1.824,1.824,0,0,0-1.213-.462c-.578,0-.866.289-.866.578,0,.925,2.946.462,2.946,2.426a1.9,1.9,0,0,1-2.138,1.733,2.823,2.823,0,0,1-2.2-1.04Z" transform="translate(-793.641 -295.598)" fill="#262a32"/><path d="M836.817,298.14h1.155v.809a2.272,2.272,0,0,1,1.906-.924,2.9,2.9,0,0,1,0,5.777,2.272,2.272,0,0,1-1.906-.925v3.235h-1.155Zm4.506,2.773a1.679,1.679,0,1,0-1.675,1.791A1.7,1.7,0,0,0,841.323,300.912Z" transform="translate(-817.167 -295.598)" fill="#262a32"/><path d="M873.549,285.7a.693.693,0,1,1-.693.693A.7.7,0,0,1,873.549,285.7Zm-.578,2.426h1.155v5.546h-1.155Z" transform="translate(-846.448 -285.585)" fill="#262a32"/><path d="M886.526,291.728h-1.04v-1.1h.635c.347,0,.52-.173.52-.635v-1.213h1.04v1.849h1.271v1.1h-1.271v2.6c0,.578.289.866.809.866a1.378,1.378,0,0,0,.635-.173v1.1a2.1,2.1,0,0,1-.867.173,1.617,1.617,0,0,1-1.733-1.849Z" transform="translate(-856.71 -288.089)" fill="#262a32"/><path d="M912.534,302.876a2.184,2.184,0,0,1-1.791.925,1.714,1.714,0,0,1-1.849-1.618,1.751,1.751,0,0,1,1.617-1.733l2.022-.347a1.067,1.067,0,0,0-1.156-1.04,2.027,2.027,0,0,0-1.444.751l-.751-.751a2.823,2.823,0,0,1,2.2-1.04,2.144,2.144,0,0,1,2.311,2.137v3.524h-1.155Zm0-1.848-1.617.289c-.578.1-.867.4-.867.751,0,.4.347.751.924.751a1.567,1.567,0,0,0,1.56-1.617Z" transform="translate(-875.73 -295.598)" fill="#262a32"/><path d="M942.779,285.085h1.155v8.087h-1.155Z" transform="translate(-903.26 -285.085)" fill="#262a32"/><path d="M955.235,302.01a2.028,2.028,0,0,0,1.444.751c.636,0,.982-.347.982-.693,0-.924-2.946-.462-2.946-2.426,0-.866.751-1.617,2.022-1.617a2.628,2.628,0,0,1,1.964.751l-.751.751a1.825,1.825,0,0,0-1.213-.462c-.578,0-.867.289-.867.578,0,.925,2.946.462,2.946,2.426a1.9,1.9,0,0,1-2.138,1.733,2.823,2.823,0,0,1-2.2-1.04Z" transform="translate(-912.77 -295.598)" fill="#262a32"/></g><g transform="translate(113.197 42.296)"><path d="M732.023,359.772h5.661v1.213h-4.39V363.3h3.466v1.213h-3.466v3.35h-1.271Z" transform="translate(-732.023 -359.772)" fill="#262a32"/><path d="M766.024,372.712a2.888,2.888,0,1,1-2.888,2.888A2.86,2.86,0,0,1,766.024,372.712Zm1.733,2.888a1.734,1.734,0,1,0-1.733,1.791A1.716,1.716,0,0,0,767.757,375.6Z" transform="translate(-757.302 -370.286)" fill="#262a32"/><path d="M799.73,373.328h1.155v3.235a1.229,1.229,0,0,0,1.271,1.329,1.472,1.472,0,0,0,1.5-1.56v-3h1.156v5.546h-1.156v-.809a2.143,2.143,0,0,1-1.733.924,2.191,2.191,0,0,1-2.2-2.426Z" transform="translate(-787.034 -370.786)" fill="#262a32"/><path d="M834.846,372.828H836v.809a2.143,2.143,0,0,1,1.733-.924,2.191,2.191,0,0,1,2.2,2.426v3.235h-1.155v-3.235a1.229,1.229,0,0,0-1.271-1.329,1.472,1.472,0,0,0-1.5,1.56v3h-1.155Z" transform="translate(-815.566 -370.286)" fill="#262a32"/><path d="M872.372,367.051a2.272,2.272,0,0,1-1.906.924,2.9,2.9,0,0,1,0-5.777,2.272,2.272,0,0,1,1.906.924v-3.351h1.155v8.088h-1.155Zm0-1.964a1.679,1.679,0,1,0-1.675,1.791A1.705,1.705,0,0,0,872.372,365.087Z" transform="translate(-842.394 -359.772)" fill="#262a32"/><path d="M907.853,377.564a2.183,2.183,0,0,1-1.791.924,1.714,1.714,0,0,1-1.848-1.617,1.751,1.751,0,0,1,1.617-1.733l2.022-.347a1.067,1.067,0,0,0-1.155-1.04,2.027,2.027,0,0,0-1.444.751l-.751-.751a2.823,2.823,0,0,1,2.2-1.04,2.144,2.144,0,0,1,2.311,2.137v3.524h-1.155Zm0-1.849-1.617.289c-.578.1-.867.4-.867.751,0,.4.347.751.924.751a1.567,1.567,0,0,0,1.56-1.617Z" transform="translate(-871.926 -370.286)" fill="#262a32"/><path d="M935.749,366.415h-1.04v-1.1h.635c.346,0,.52-.173.52-.636v-1.213h1.04v1.849h1.271v1.1H936.9v2.6c0,.578.289.866.809.866a1.379,1.379,0,0,0,.635-.173v1.1a2.1,2.1,0,0,1-.867.173,1.617,1.617,0,0,1-1.733-1.849Z" transform="translate(-896.703 -362.776)" fill="#262a32"/><path d="M961.276,360.388a.693.693,0,1,1-.693.693A.7.7,0,0,1,961.276,360.388Zm-.578,2.426h1.155v5.546H960.7Z" transform="translate(-917.726 -360.272)" fill="#262a32"/><path d="M976.717,372.712a2.888,2.888,0,1,1-2.888,2.888A2.86,2.86,0,0,1,976.717,372.712Zm1.733,2.888a1.734,1.734,0,1,0-1.733,1.791A1.716,1.716,0,0,0,978.45,375.6Z" transform="translate(-928.488 -370.286)" fill="#262a32"/><path d="M1010.793,372.828h1.155v.809a2.143,2.143,0,0,1,1.733-.924,2.191,2.191,0,0,1,2.2,2.426v3.235h-1.156v-3.235a1.229,1.229,0,0,0-1.271-1.329,1.472,1.472,0,0,0-1.5,1.56v3h-1.155Z" transform="translate(-958.52 -370.286)" fill="#262a32"/></g><g transform="translate(25.747 25.142)"><path d="M289.714,288.936a13.863,13.863,0,0,1-10.58,4.607c-7.849,0-13.481-5.631-13.481-12.627s5.631-12.627,13.481-12.627a13.293,13.293,0,0,1,10.409,4.607l-4.607,4.949a7.5,7.5,0,0,0-5.631-2.73,5.8,5.8,0,1,0,0,11.6,8.069,8.069,0,0,0,5.8-2.73Z" transform="translate(-265.653 -268.288)" fill="#f57f29"/></g><g transform="translate(1.212 25.142)"><g transform="translate(0 0)"><path d="M139.24,284.841a7.163,7.163,0,0,0,4.778,2.389c1.707,0,2.389-.682,2.389-1.536,0-2.73-10.75-2.218-10.75-9.9,0-3.925,3.584-7.508,9.556-7.508,6.143,0,8.874,3.413,8.874,3.413l-4.437,4.607a4.528,4.528,0,0,0-3.583-1.706c-1.365,0-2.048.512-2.048,1.194,0,2.73,10.75,2.218,10.75,9.9,0,4.1-3.754,7.85-9.9,7.85a13.988,13.988,0,0,1-10.068-4.1Z" transform="translate(-134.803 -268.289)" fill="#902082"/></g></g><g transform="translate(55.061 25.966)"><path d="M421.982,272.682h7.848v8.545h7.324v-8.545H445V297.1h-7.848V288.2H429.83V297.1h-7.848Z" transform="translate(-421.982 -272.682)" fill="#62489d"/></g><g transform="translate(85.07 25.951)"><path d="M582.024,272.6h19.357v6.8h-11.51v3.662h8.719v6.278h-8.719v7.673h-7.848Z" transform="translate(-582.024 -272.599)" fill="#68c6b4"/></g><path d="M187.871,241.827" transform="translate(-176.709 -221.646)" fill="#711c7f"/><g transform="translate(56.49 0.036)"><rect width="20.15" height="3.913" fill="#62489d"/><path d="M429.6,162.956v14.838l10.059-1.54,10.091,1.54V162.956Z" transform="translate(-429.602 -157.6)" fill="#62489d"/></g><g transform="translate(25.885 0.036)"><path d="M290.448,170.742a2.616,2.616,0,0,0-2.16-2.649,7.137,7.137,0,0,1-3.5-1.133,11.128,11.128,0,0,1-2.35-2.561,10.334,10.334,0,0,1-4.981,2.54,11.757,11.757,0,0,1-8.274-1.8,10.274,10.274,0,0,0-.38,1.148,10.428,10.428,0,0,0-.324,1.977,2.719,2.719,0,0,0-2.095,2.666V171a2.719,2.719,0,0,0,2.74,2.7l.482,0a9.341,9.341,0,0,0,6.617,5.04,10.832,10.832,0,0,0,3.981-.027,9.859,9.859,0,0,0,6.851-5.148l.692-.006a2.719,2.719,0,0,0,2.7-2.74Zm-18.173-.1a.549.549,0,0,1-.516.375h-.007a.524.524,0,0,1-.181-.033.545.545,0,0,1-.313-.283.557.557,0,0,1-.025-.422,3.465,3.465,0,0,1,3.247-2.367h.023a3.475,3.475,0,0,1,3.189,2.125.558.558,0,0,1-.284.73.543.543,0,0,1-.425.007.549.549,0,0,1-.3-.3,2.351,2.351,0,0,0-4.406.165Zm9.83,2.3a3.674,3.674,0,0,1-7.347-.082l.014-.686,7.347.082Zm3.414-2.347a.548.548,0,0,1-.311.29.668.668,0,0,1-.188.033h-.005a.553.553,0,0,1-.515-.367,2.386,2.386,0,0,0-2.254-1.6,2.361,2.361,0,0,0-2.169,1.487.549.549,0,0,1-.3.3.535.535,0,0,1-.426,0,.562.562,0,0,1-.294-.725,3.457,3.457,0,0,1,6.481.155A.562.562,0,0,1,285.519,170.6Z" transform="translate(-266.388 -158.773)" fill="#f57f29"/><path d="M272.959,138.784c.244.2.738.562,1,.756l.171.127a11.161,11.161,0,0,0,8.091,1.959,9.588,9.588,0,0,0,4.8-2.594.569.569,0,0,1,.914.106,10.3,10.3,0,0,0,2.364,2.692h0a5.983,5.983,0,0,0,2.821.909,9.429,9.429,0,0,0-4.544-6.949,9.969,9.969,0,0,0-4.768-1.392,9.774,9.774,0,0,0-1.557.071,9.912,9.912,0,0,0-6.737,3.8h0a12.052,12.052,0,0,1-1.356-.959,1.047,1.047,0,0,0-1.474.15,1.035,1.035,0,0,0-.2.4,1.055,1.055,0,0,0,.008.553Z" transform="translate(-271.319 -134.393)" fill="#f57f29"/></g><g transform="translate(85.071 0.04)"><path d="M602.217,144.575a10.1,10.1,0,1,0-19.1,4.5l-1.094,5.533,5.978-.878a10.088,10.088,0,0,0,14.212-9.151" transform="translate(-582.027 -134.417)" fill="#68c6b4"/></g><g transform="translate(0 0.035)"><g transform="translate(0 0)"><path d="M188.454,242.09" transform="translate(-177.182 -221.896)" fill="#902082"/><path d="M150.885,140.561a6.169,6.169,0,0,0-11.272-3.466,6.169,6.169,0,0,0-11.272,3.466s0,8.151,11.272,14.026C150.889,148.712,150.885,140.561,150.885,140.561Z" transform="translate(-128.341 -134.392)" fill="#902082"/></g></g></g></svg>